<?xml version="1.0" standalone="no"?>
<!DOCTYPE svg PUBLIC "-//W3C//DTD SVG 20010904//EN"
 "http://www.w3.org/TR/2001/REC-SVG-20010904/DTD/svg10.dtd">
<svg version="1.0" xmlns="http://www.w3.org/2000/svg"
 width="964.000000pt" height="933.000000pt" viewBox="0 0 964.000000 933.000000"
 preserveAspectRatio="xMidYMid meet">

<g transform="translate(0.000000,933.000000) scale(0.100000,-0.100000)"
fill="#000000" stroke="none">
<path d="M2840 9270 c-25 -4 -70 -17 -100 -29 -30 -12 -94 -35 -142 -51 -48
-16 -100 -38 -115 -48 -15 -11 -67 -45 -114 -76 -47 -31 -96 -68 -109 -84 -12
-15 -64 -70 -114 -122 -50 -53 -98 -105 -107 -116 -20 -25 -116 -215 -134
-264 -35 -95 -66 -192 -84 -260 -26 -98 -70 -250 -81 -275 -13 -34 -31 -165
-37 -273 -6 -102 2 -165 32 -257 7 -22 18 -61 25 -87 9 -35 18 -48 34 -50 18
-3 22 -12 28 -60 9 -72 36 -126 85 -168 21 -18 43 -43 50 -54 12 -21 12 -21
13 3 0 14 -18 43 -45 73 -29 32 -45 59 -45 77 0 26 -18 85 -34 109 -5 8 -4 18
3 25 6 6 11 43 11 83 0 92 14 108 64 70 19 -14 42 -26 50 -26 9 0 16 -5 16
-12 0 -16 -49 -98 -59 -98 -13 0 -23 -87 -16 -131 7 -39 8 -40 38 -33 18 4 40
7 50 6 18 -1 23 35 8 73 -6 14 1 37 21 78 29 56 41 67 53 47 12 -19 23 -10 43
33 20 43 46 138 57 214 4 24 11 45 16 49 5 3 9 12 9 21 0 8 29 58 65 111 51
76 68 112 80 167 35 157 77 246 152 327 48 52 53 68 23 68 -12 0 -20 7 -20 16
0 9 9 27 20 41 11 14 20 32 20 39 0 8 4 14 10 14 5 0 12 11 16 25 5 19 14 25
50 31 25 3 47 4 50 1 4 -3 17 -2 30 3 19 8 29 5 43 -9 41 -41 96 -54 107 -26
3 8 20 19 37 24 56 19 285 16 316 -4 6 -3 11 -13 11 -20 0 -11 8 -13 29 -9 18
4 41 0 58 -9 28 -15 133 -40 149 -35 31 9 124 -56 124 -86 0 -8 16 -32 35 -53
36 -39 46 -63 67 -165 9 -45 16 -58 32 -60 19 -3 22 -13 28 -93 5 -49 12 -103
18 -119 5 -16 10 -44 10 -62 l0 -33 -62 64 c-80 80 -127 96 -278 94 -83 -1
-115 -5 -150 -22 -73 -33 -138 -34 -196 -3 -27 14 -59 26 -72 26 -13 0 -33 5
-44 11 -12 7 -88 12 -189 12 -160 2 -169 1 -196 -21 -15 -12 -50 -34 -77 -48
-82 -43 -117 -103 -53 -90 80 17 97 18 97 7 0 -6 -7 -11 -15 -11 -8 0 -15 -5
-15 -10 0 -6 -13 -24 -30 -40 -16 -16 -30 -38 -30 -49 0 -11 -6 -26 -13 -33
-7 -7 -18 -26 -25 -41 -15 -34 -2 -42 63 -35 60 7 78 -7 43 -34 l-26 -20 26
-29 c14 -16 31 -29 39 -29 7 0 22 -9 34 -21 32 -32 158 -41 232 -15 53 18 129
61 149 83 26 30 40 89 33 137 -9 59 0 82 35 95 26 9 37 5 92 -28 l63 -38 5
-86 c6 -91 3 -86 83 -173 40 -44 49 -47 170 -63 97 -13 131 -1 194 67 29 32
53 62 53 69 0 7 12 18 28 25 27 13 27 14 23 96 -3 89 11 111 28 45 49 -185 81
-341 81 -400 0 -38 3 -86 7 -108 6 -36 7 -38 14 -15 4 14 8 57 8 95 2 99 43
267 74 304 39 47 51 117 44 266 -5 114 -4 135 11 156 15 21 17 50 16 214 -1
105 -6 210 -12 235 -8 37 -35 108 -101 265 -70 167 -160 291 -266 367 -74 53
-220 131 -305 163 -41 16 -79 32 -85 37 -5 4 -19 8 -32 8 -13 0 -23 4 -23 9 0
28 -276 58 -380 41z m-225 -1660 c-3 -5 -10 -10 -16 -10 -5 0 -9 5 -9 10 0 6
7 10 16 10 8 0 12 -4 9 -10z m-755 -44 c0 -14 -10 -30 -25 -40 -14 -10 -31
-29 -38 -44 -11 -26 -12 -25 -15 22 -4 55 16 86 55 86 18 0 23 -5 23 -24z"/>
<path d="M3025 8450 c-3 -5 -1 -10 4 -10 6 0 11 5 11 10 0 6 -2 10 -4 10 -3 0
-8 -4 -11 -10z"/>
<path d="M3341 7183 c2 -68 -3 -93 -21 -93 -4 0 -12 13 -18 28 -8 24 -18 29
-73 41 -69 13 -88 10 -135 -26 -23 -17 -39 -22 -61 -17 -20 4 -33 1 -42 -10
-8 -9 -20 -16 -27 -16 -17 0 -48 -46 -39 -60 3 -5 14 -10 23 -10 15 0 15 -2 2
-11 -12 -8 -10 -10 10 -8 14 1 38 1 54 0 25 -1 27 -4 22 -27 -8 -30 1 -64 16
-64 6 0 17 -8 24 -17 18 -26 -1 -43 -47 -43 -22 0 -47 -4 -57 -9 -9 -5 -44
-18 -77 -31 -33 -12 -68 -26 -77 -31 -23 -12 -75 -12 -83 1 -21 35 -94 -18
-124 -90 -18 -45 -25 -136 -14 -181 8 -30 14 -34 45 -37 31 -3 38 1 57 33 25
43 27 71 6 92 -17 16 -12 33 10 33 7 0 18 15 25 34 l11 33 91 7 c132 9 218 8
218 -4 0 -6 -38 -10 -95 -10 -104 0 -115 -11 -49 -46 39 -21 44 -34 12 -34
-40 0 -50 -13 -44 -61 8 -71 37 -89 144 -89 48 0 94 -5 102 -10 12 -8 11 -10
-7 -10 -17 0 -23 -6 -23 -21 0 -11 -9 -32 -20 -46 -30 -38 -25 -46 21 -38 61
10 46 -16 -19 -35 -29 -9 -73 -32 -100 -52 -51 -39 -120 -68 -165 -68 -30 0
-145 36 -163 51 -8 6 -35 6 -74 0 -55 -9 -67 -8 -101 10 -22 11 -44 17 -50 14
-6 -4 -7 -37 -3 -84 l7 -78 -33 -12 c-41 -14 -70 -14 -70 -1 0 6 -6 10 -14 10
-13 0 -92 86 -134 147 -12 17 -25 45 -28 62 -7 34 -14 37 -32 19 -20 -20 -14
-41 37 -134 27 -49 51 -100 53 -114 2 -14 11 -32 21 -42 17 -16 17 -17 -1 -22
-23 -8 -62 -75 -62 -108 0 -37 -37 -65 -125 -93 -59 -19 -103 -26 -165 -27
-139 -1 -129 -4 -118 43 8 29 8 43 -1 52 -8 8 -11 7 -11 -4 0 -9 -9 -24 -21
-35 -11 -10 -18 -26 -15 -36 3 -13 -1 -18 -12 -16 -9 2 -22 -9 -31 -23 -13
-23 -13 -33 -1 -70 7 -24 17 -48 22 -54 16 -18 8 -35 -37 -83 -25 -26 -45 -53
-45 -59 0 -14 -13 -17 -23 -6 -4 3 -2 12 5 20 8 11 7 12 -6 7 -9 -4 -24 -20
-32 -36 -14 -27 -14 -32 -1 -45 13 -14 13 -20 0 -61 -18 -51 -83 -122 -113
-122 -13 0 -20 -7 -20 -17 1 -24 34 -63 55 -63 23 0 102 56 116 83 7 12 34 53
62 90 27 37 61 100 76 140 29 79 50 93 97 63 29 -20 31 -37 5 -60 -10 -9 -22
-36 -25 -59 -7 -45 -35 -93 -103 -177 -49 -59 -55 -83 -20 -75 19 5 29 -5 71
-69 37 -58 54 -76 75 -78 23 -3 26 -7 27 -46 1 -32 -4 -45 -15 -49 -9 -3 -36
-15 -60 -26 l-43 -20 -34 39 c-18 21 -36 48 -40 59 -4 10 -13 25 -20 33 -12
11 -14 8 -14 -22 0 -25 4 -36 15 -36 8 0 15 -7 15 -16 0 -14 -10 -16 -80 -11
-81 6 -102 -1 -74 -23 8 -7 13 -19 10 -26 -3 -7 6 -15 21 -19 34 -8 18 -22
-32 -28 -52 -6 -193 -42 -273 -69 -41 -14 -66 -18 -72 -12 -9 9 -18 43 -37
135 -3 19 -10 25 -23 22 -15 -4 -17 1 -14 37 2 28 -4 61 -22 102 -38 90 -48
160 -30 200 8 18 18 70 21 115 7 82 7 83 -19 93 -30 11 -33 26 -10 59 15 21
22 23 65 17 39 -5 49 -4 49 7 0 14 -47 27 -103 27 -37 0 -57 -47 -57 -135 0
-61 13 -86 26 -50 10 24 24 17 24 -11 0 -22 -4 -26 -24 -22 -14 3 -30 1 -37
-3 -17 -10 -25 -140 -11 -177 5 -15 16 -53 23 -84 7 -34 18 -58 25 -58 20 0
28 -21 13 -31 -11 -7 -12 -12 -2 -28 7 -11 24 -91 39 -178 14 -87 30 -166 35
-175 5 -9 9 -32 9 -50 0 -19 5 -39 12 -46 8 -8 9 -12 1 -12 -6 0 -9 -9 -6 -20
6 -23 19 -26 26 -7 2 6 8 8 13 4 5 -5 1 -14 -9 -22 -14 -10 -16 -18 -9 -32 6
-10 13 -47 17 -83 4 -36 11 -73 16 -82 5 -9 9 -30 9 -47 0 -16 5 -33 10 -36 6
-3 10 -15 10 -26 0 -11 10 -24 23 -29 17 -7 18 -9 5 -9 -22 -1 -24 -21 -3 -21
18 0 20 -16 3 -24 -10 -5 -10 -7 0 -12 9 -4 10 -10 2 -19 -7 -9 -4 -37 14
-101 14 -49 29 -104 34 -123 6 -27 13 -35 32 -36 14 -1 33 -5 43 -10 14 -6 17
-2 17 31 0 22 -5 55 -10 74 -34 129 -37 135 -61 140 -24 6 -24 6 -2 12 14 4
21 12 18 24 -17 94 -29 145 -41 178 -11 27 -12 42 -4 51 13 15 78 32 140 34
223 11 272 17 285 35 7 9 19 14 29 10 17 -7 21 1 31 59 l6 37 -53 0 c-29 0
-89 -9 -133 -21 -102 -26 -173 -40 -207 -39 -15 0 -29 -4 -33 -10 -8 -14 -92
-13 -101 1 -4 6 -10 26 -14 44 -6 26 -3 34 14 45 12 8 31 14 44 15 13 0 28 7
33 15 7 10 12 11 15 3 4 -8 15 -8 38 -2 57 16 248 49 280 49 17 0 55 -14 85
-30 l55 -30 23 22 c13 12 23 27 23 33 0 7 27 18 61 25 49 11 59 16 53 29 -17
39 -10 56 32 70 59 21 91 9 110 -39 15 -37 19 -40 53 -40 l37 0 -41 84 c-22
46 -52 99 -66 117 -14 19 -38 56 -53 82 -25 44 -60 71 -79 60 -4 -2 -16 -1
-27 2 -22 7 -28 53 -9 72 14 14 -36 97 -90 152 l-35 34 35 31 c62 54 72 76 57
130 -9 34 -9 49 -1 57 23 23 34 -2 32 -69 -4 -113 8 -157 70 -246 31 -45 72
-106 91 -136 19 -30 37 -57 41 -60 9 -7 115 -182 153 -252 30 -57 32 -58 74
-58 39 0 42 2 32 19 -5 11 -15 23 -21 27 -6 4 -25 36 -41 73 -17 36 -50 94
-74 128 -24 34 -44 64 -44 68 0 11 -101 155 -163 233 l-58 73 12 55 c10 43 15
52 26 43 7 -6 13 -22 13 -36 0 -13 12 -35 28 -49 65 -61 75 -71 95 -100 12
-18 53 -76 90 -129 37 -54 75 -112 85 -129 9 -17 40 -67 68 -111 28 -44 54
-89 58 -101 12 -38 48 -62 99 -65 30 -2 51 2 56 9 7 12 151 72 171 72 5 0 33
11 62 23 90 40 148 59 163 53 21 -8 25 6 10 41 -19 44 -42 48 -121 17 -121
-46 -309 -110 -342 -117 -28 -6 -35 -2 -58 29 -18 24 -24 38 -17 45 6 6 62 25
124 44 63 18 156 49 207 69 52 20 102 36 112 36 31 0 32 17 3 40 -22 17 -35
20 -72 14 -25 -4 -50 -10 -56 -14 -5 -4 -37 -15 -70 -24 -33 -10 -71 -22 -85
-26 -43 -16 -187 -50 -208 -50 -19 0 -72 58 -72 79 0 15 35 31 69 31 32 0 194
38 301 70 36 11 80 20 98 20 18 0 32 4 32 10 0 5 -13 31 -30 57 -16 26 -30 53
-30 60 0 24 -38 89 -77 132 -21 24 -54 70 -73 104 -37 64 -56 79 -66 52 -9
-23 27 -85 100 -174 91 -109 120 -150 113 -157 -3 -4 -23 -10 -44 -14 -21 -5
-92 -20 -158 -35 -101 -23 -265 -54 -286 -55 -3 0 -25 27 -48 59 -24 33 -54
69 -68 81 -36 31 -24 45 38 46 86 1 167 14 179 29 17 21 3 35 -33 35 -75 0
-184 39 -272 97 -28 18 -69 43 -92 55 -22 13 -57 34 -78 47 -32 21 -35 26 -22
38 12 13 24 13 66 4 57 -12 165 -14 225 -4 29 5 54 21 103 68 44 44 73 64 96
68 17 2 34 1 37 -4 7 -10 26 -125 37 -224 6 -55 12 -71 26 -73 10 -2 20 4 24
15 3 10 15 31 26 46 17 25 18 35 8 109 -14 106 -14 105 9 75 11 -14 20 -28 20
-31 0 -4 20 -37 45 -75 25 -38 45 -72 45 -77 0 -12 37 -44 50 -44 14 0 12 12
-6 38 -14 20 -14 22 0 22 9 0 16 -7 16 -15 0 -54 66 36 69 94 2 50 24 79 45
62 9 -8 33 -10 66 -6 32 4 57 2 65 -5 8 -7 19 -9 25 -5 5 3 22 -7 37 -22 14
-15 23 -21 18 -13 -6 10 -2 9 12 -3 23 -20 73 -14 73 9 0 8 6 14 14 14 8 0 18
9 21 21 10 29 50 42 92 28 l34 -11 -2 -66 c-5 -195 5 -266 43 -323 10 -15 15
-35 11 -48 -5 -21 0 -19 73 18 82 42 141 65 209 83 64 17 61 25 -13 32 -121
12 -206 86 -183 159 40 122 41 130 41 305 0 157 2 174 14 147 18 -40 32 -92
56 -205 12 -52 29 -106 39 -120 10 -14 21 -35 25 -46 8 -26 44 -60 53 -50 7 7
-8 76 -37 166 -33 103 -33 109 -5 120 34 13 32 26 -5 34 -24 4 -30 11 -30 31
0 33 18 32 58 -5 18 -16 52 -43 76 -59 40 -28 63 -58 52 -68 -2 -2 -22 5 -45
16 -22 12 -45 21 -51 21 -14 0 -13 -32 4 -115 8 -38 16 -103 19 -144 6 -68 5
-72 -11 -58 -22 19 -62 31 -62 19 0 -6 14 -16 30 -24 17 -7 30 -18 30 -24 0
-7 7 -14 15 -18 8 -3 15 -15 15 -27 0 -11 9 -32 20 -46 11 -14 20 -36 20 -49
0 -24 -4 -26 -82 -39 -20 -3 -39 -12 -42 -20 -3 -8 -12 -15 -19 -15 -8 0 -20
-7 -27 -15 -10 -12 -10 -15 3 -15 9 0 22 7 31 15 8 8 35 18 60 21 38 6 47 4
52 -11 8 -20 -15 -43 -100 -99 -62 -40 -66 -53 -22 -58 20 -2 37 0 38 4 6 18
130 27 136 9 2 -5 9 -8 16 -5 8 3 16 -5 20 -19 7 -28 36 -45 36 -22 0 20 20
19 34 -1 10 -14 13 -12 25 9 23 44 115 49 203 13 58 -24 68 -24 68 0 0 35
-106 87 -203 100 -37 5 -53 2 -83 -15 -20 -12 -39 -20 -41 -17 -10 10 9 46 25
47 14 0 13 2 -3 8 -11 5 -23 7 -27 4 -9 -5 -34 84 -44 150 -3 26 -10 49 -14
52 -8 5 -5 181 5 254 8 60 23 65 67 21 36 -37 68 -55 89 -52 9 2 22 -4 29 -13
18 -22 35 -19 72 15 18 17 58 43 89 59 l56 28 57 -18 c32 -10 92 -23 135 -28
42 -6 84 -13 94 -17 31 -12 14 -35 -43 -59 -48 -20 -155 -86 -215 -130 -10 -8
-23 -15 -27 -15 -4 0 -8 -9 -8 -20 0 -25 48 -50 97 -50 21 0 65 -11 97 -24
l60 -24 3 -59 c1 -32 7 -101 12 -153 12 -121 8 -127 -75 -110 -33 7 -62 17
-66 23 -4 7 -12 6 -23 -3 -14 -11 -17 -11 -21 6 -3 11 -19 25 -35 31 -25 10
-31 9 -36 -4 -10 -25 63 -68 199 -116 62 -23 77 -39 64 -72 -8 -21 -80 3 -234
78 -113 55 -134 61 -189 62 -52 0 -66 -4 -87 -24 -30 -28 -32 -38 -10 -69 l15
-22 30 23 c25 18 43 22 97 21 57 -1 81 -8 162 -46 117 -56 158 -74 193 -87 21
-8 27 -17 27 -41 0 -19 -5 -30 -14 -30 -15 0 -75 25 -176 73 -89 42 -130 57
-163 57 -32 0 -98 -25 -108 -42 -9 -15 -28 -1 -40 30 -12 32 -29 17 -22 -20
12 -63 87 -106 124 -72 26 24 132 24 181 1 113 -53 145 -63 184 -59 24 2 45
-1 48 -7 4 -6 22 -11 39 -11 l32 0 0 143 0 142 -25 3 c-33 5 -51 22 -23 22 23
0 33 24 33 83 0 30 -4 37 -20 37 -11 0 -20 5 -20 10 0 6 11 10 24 10 31 0 34
9 29 105 -4 59 -9 83 -21 92 -77 57 -172 138 -172 146 0 24 85 -4 152 -50 39
-26 80 -53 90 -59 51 -30 53 -39 54 -339 1 -384 -4 -345 43 -345 l39 0 5 48
c9 81 3 337 -8 342 -5 3 -12 -6 -13 -20 -6 -40 -22 -48 -23 -12 -1 18 -2 38
-3 44 -1 7 10 13 24 13 25 0 25 0 25 101 1 62 5 107 12 116 16 18 -18 51 -151
144 -56 39 -103 79 -104 88 -2 10 4 26 13 36 16 18 19 18 49 3 37 -19 144 -94
206 -144 25 -20 53 -39 63 -42 9 -4 17 -11 17 -17 0 -5 9 -19 20 -30 26 -26
25 -40 -1 -40 -20 0 -21 -4 -16 -129 4 -141 8 -156 37 -141 26 14 35 12 21 -4
-6 -7 -8 -22 -4 -32 6 -17 5 -17 -10 -5 -14 11 -20 11 -32 1 -12 -10 -15 -42
-15 -166 l0 -154 45 0 c37 0 45 3 45 19 0 25 26 31 131 31 91 0 116 11 103 45
-7 16 -17 17 -105 11 -107 -7 -129 -3 -129 24 0 29 20 37 123 50 105 12 167
32 167 53 0 6 -7 20 -14 30 -12 15 -16 16 -23 4 -6 -10 -40 -16 -125 -21
l-118 -7 0 24 c0 13 -3 27 -7 31 -12 11 -11 50 2 69 9 12 11 53 8 140 -5 130
-17 167 -53 167 -11 0 -20 4 -20 9 0 5 -41 50 -92 100 -50 50 -89 93 -86 96 3
3 26 -3 51 -12 40 -15 54 -15 105 -5 32 7 70 12 85 12 36 0 39 10 12 44 -24
31 -39 31 -130 7 -65 -17 -128 -13 -187 13 -29 13 -60 31 -68 41 -25 30 -68
45 -247 85 -182 41 -295 82 -370 132 -23 16 -73 42 -109 59 -92 41 -223 121
-255 156 -14 15 -36 45 -49 66 -12 21 -27 36 -33 34 -14 -4 -47 -88 -54 -134
-3 -18 -9 -33 -14 -33 -12 0 -12 67 0 74 4 3 11 20 15 37 3 17 15 43 26 59 11
15 20 35 20 44 0 9 7 19 15 22 8 3 17 14 20 25 4 10 13 19 22 19 13 0 13 2 2
16 -11 14 -10 19 9 34 12 10 22 23 22 30 0 6 9 23 19 38 19 27 39 108 24 99
-4 -3 -8 9 -7 26 2 62 3 67 20 60 14 -5 15 -1 9 25 -6 27 -3 33 17 43 20 8 23
16 20 40 -4 29 12 41 21 17 6 -15 10 14 7 55 -1 15 3 27 8 27 6 0 13 14 17 30
4 17 12 43 20 58 18 38 27 92 15 92 -6 0 -9 3 -8 8 4 10 -76 82 -91 82 -6 0
-11 5 -11 10 0 6 -6 10 -14 10 -7 0 -34 25 -60 56 -65 80 -154 145 -215 159
l-32 7 2 -69z m-11 -239 c0 -19 10 -18 25 3 12 17 14 17 34 -1 13 -12 17 -22
11 -26 -6 -4 4 -22 25 -44 37 -40 42 -55 23 -74 -16 -16 -38 -15 -57 1 -23 20
-128 57 -159 57 -15 0 -33 -4 -41 -9 -8 -5 -21 -6 -30 -3 -11 5 -7 8 14 12 17
3 34 15 41 27 6 13 14 20 17 17 4 -4 19 -8 34 -10 27 -2 27 -2 9 12 -11 8 -23
14 -28 14 -16 0 -8 17 12 26 33 15 70 13 70 -2z m-70 -238 c0 -9 -40 -13 -46
-5 -3 5 6 9 20 9 14 0 26 -2 26 -4z m170 -26 c0 -15 -7 -20 -25 -20 -18 0 -25
5 -25 20 0 15 7 20 25 20 18 0 25 -5 25 -20z m30 -104 c0 -8 -4 -18 -10 -21
-5 -3 -10 3 -10 14 0 12 5 21 10 21 6 0 10 -6 10 -14z m-26 -62 c22 -8 20 -21
-5 -35 -25 -13 -45 1 -36 25 7 17 16 19 41 10z m-44 -66 c0 -4 11 -13 24 -19
14 -7 27 -22 30 -35 4 -13 13 -24 21 -24 8 0 15 -4 15 -9 0 -15 -92 -91 -110
-91 -28 0 -83 22 -104 42 -11 10 -26 16 -32 14 -18 -7 -23 40 -8 70 15 29 11
44 -12 44 -8 0 -12 4 -9 10 7 12 185 10 185 -2z m-1070 -523 c37 -19 38 -41 3
-50 -45 -11 -69 -31 -92 -77 -29 -57 -39 -70 -85 -98 -33 -20 -52 -23 -130
-24 -162 -2 -255 6 -267 21 -26 30 6 38 141 34 122 -3 132 -2 187 23 74 35 90
50 118 112 33 73 66 89 125 59z m1076 -48 c-1 -18 -9 -52 -16 -76 -26 -82 -29
17 -4 107 7 25 23 1 20 -31z m321 1 c33 -32 41 -48 23 -48 -13 0 -80 60 -80
71 0 18 25 8 57 -23z m-1331 -93 c21 -33 13 -51 -27 -59 -21 -4 -50 -26 -88
-65 -31 -33 -70 -66 -88 -75 -36 -18 -138 -21 -249 -6 -42 5 -85 6 -103 0 -24
-7 -35 -4 -56 12 -55 43 -24 59 95 47 109 -11 220 -9 257 4 40 15 88 58 108
97 34 65 121 91 151 45z m1564 -27 c0 -4 -17 -16 -38 -27 -21 -11 -44 -26 -51
-35 -11 -14 -16 -13 -41 5 -15 12 -33 32 -39 45 -10 22 -9 23 19 18 21 -5 36
0 55 14 25 20 28 20 61 5 19 -9 34 -20 34 -25z m-617 -18 c3 -11 1 -18 -4 -14
-5 3 -9 12 -9 20 0 20 7 17 13 -6z m757 -49 l24 -19 -29 -12 c-63 -25 -99 -46
-126 -72 -15 -16 -30 -28 -33 -28 -3 0 -13 14 -22 31 -16 32 -16 32 16 58 79
63 126 75 170 42z m-1342 -219 c2 -7 -3 -12 -12 -12 -9 0 -16 7 -16 16 0 17
22 14 28 -4z m-1158 0 c0 -5 -7 -17 -15 -28 -15 -19 -20 -8 -9 20 6 17 24 22
24 8z m365 -638 c33 -35 32 -59 -2 -71 -105 -38 -105 -38 -130 -9 -32 38 -29
61 10 79 75 34 91 34 122 1z m-248 -138 c60 -27 100 -66 88 -86 -3 -5 -1 -11
5 -15 5 -3 10 -13 10 -21 0 -11 -4 -12 -19 -2 -11 6 -17 19 -14 27 4 14 3 14
-6 1 -9 -13 -15 -13 -43 -1 -89 35 -125 42 -193 38 -87 -6 -182 -24 -259 -48
-76 -24 -93 -24 -106 2 -19 34 -4 64 37 81 95 40 195 57 318 54 107 -2 127 -5
182 -30z m-56 -333 c-9 -16 -10 -14 -11 12 0 21 3 26 11 18 8 -8 8 -16 0 -30z
m-141 12 c0 -8 -4 -15 -10 -15 -5 0 -10 7 -10 15 0 8 5 15 10 15 6 0 10 -7 10
-15z m78 3 c-3 -7 -14 -14 -26 -14 -20 -2 -20 -1 -2 3 11 2 18 9 15 14 -4 5
-1 9 5 9 7 0 10 -6 8 -12z m-341 -39 c0 -25 -4 -29 -27 -29 -14 0 -35 7 -46
16 -18 15 -18 15 9 11 15 -2 30 0 33 4 3 5 -7 9 -21 9 -14 0 -24 4 -21 9 3 5
21 9 39 9 30 0 34 -3 34 -29z m76 13 c-12 -12 -20 -14 -25 -8 -4 6 0 14 10 18
29 11 33 9 15 -10z m131 7 c3 -3 -10 -6 -29 -7 -18 -1 -36 2 -39 7 -7 10 58
10 68 0z"/>
<path d="M2809 7207 c-15 -12 -32 -32 -38 -45 -7 -12 -16 -20 -22 -17 -5 4
-14 -6 -20 -22 -5 -15 -28 -39 -50 -53 -26 -16 -47 -39 -59 -66 -10 -23 -32
-57 -49 -75 -39 -41 -43 -99 -9 -123 30 -21 45 -20 51 4 3 11 13 20 24 20 25
1 45 18 73 65 23 39 57 85 84 115 7 8 18 25 25 37 9 18 17 21 42 16 l31 -6 -7
64 c-13 112 -27 128 -76 86z"/>
<path d="M3851 6984 c0 -11 3 -14 6 -6 3 7 2 16 -1 19 -3 4 -6 -2 -5 -13z"/>
<path d="M1980 6950 c0 -12 17 -12 45 0 17 7 15 9 -12 9 -18 1 -33 -3 -33 -9z"/>
<path d="M2057 6902 c3 -28 12 -53 23 -63 10 -8 20 -24 23 -35 2 -10 5 -2 6
19 1 35 -28 109 -48 121 -5 3 -6 -15 -4 -42z"/>
<path d="M3834 6936 c-10 -27 2 -43 14 -19 8 14 9 24 2 28 -6 3 -13 -1 -16 -9z"/>
<path d="M1970 6883 c0 -4 5 -15 10 -23 8 -13 10 -13 10 2 0 9 -4 20 -10 23
-5 3 -10 3 -10 -2z"/>
<path d="M2101 6690 c0 -79 1 -83 14 -60 8 14 14 41 14 60 0 19 -6 46 -14 60
-13 23 -14 19 -14 -60z"/>
<path d="M3792 6758 c-15 -15 -16 -38 -2 -38 12 0 23 25 18 40 -2 7 -7 7 -16
-2z"/>
<path d="M2790 6590 c0 -5 6 -10 14 -10 8 0 18 5 21 10 3 6 -3 10 -14 10 -12
0 -21 -4 -21 -10z"/>
<path d="M4062 6560 c0 -19 2 -27 5 -17 2 9 2 25 0 35 -3 9 -5 1 -5 -18z"/>
<path d="M2135 6539 c-4 -11 -3 -25 3 -31 6 -6 11 0 14 17 6 31 -8 43 -17 14z"/>
<path d="M3640 6336 c0 -7 8 -16 18 -20 9 -3 24 -9 32 -13 8 -3 2 6 -14 20
-33 31 -36 32 -36 13z"/>
<path d="M3740 6280 c0 -5 21 -10 46 -10 27 0 43 4 39 10 -3 6 -24 10 -46 10
-21 0 -39 -4 -39 -10z"/>
<path d="M2012 6216 c-26 -33 -28 -46 -7 -46 17 0 37 35 33 58 -2 13 -8 10
-26 -12z"/>
<path d="M3595 6050 c3 -5 11 -10 16 -10 6 0 7 5 4 10 -3 6 -11 10 -16 10 -6
0 -7 -4 -4 -10z"/>
<path d="M1910 5998 c1 -19 29 -53 37 -45 8 9 -14 57 -27 57 -5 0 -10 -6 -10
-12z"/>
<path d="M3710 5983 c1 -16 28 -43 44 -43 21 0 21 36 0 44 -22 8 -44 8 -44 -1z"/>
<path d="M3802 5928 c2 -6 21 -17 41 -24 20 -7 61 -28 90 -47 28 -19 70 -41
92 -48 22 -7 49 -19 60 -26 11 -7 30 -13 42 -13 13 0 49 -9 80 -20 32 -11 71
-20 89 -20 39 0 230 -47 266 -66 15 -8 31 -26 34 -39 8 -33 32 -45 89 -45 59
0 185 37 185 55 0 25 -25 35 -61 24 -140 -43 -185 -47 -192 -17 -9 33 9 47 49
41 34 -6 124 21 124 37 0 4 -6 13 -14 19 -11 10 -21 9 -44 -3 -16 -8 -47 -17
-68 -18 -61 -5 -215 12 -259 27 -77 27 -210 55 -266 55 -49 0 -69 7 -156 55
-56 30 -105 55 -111 55 -5 0 -15 7 -22 15 -15 18 -53 20 -48 3z"/>
<path d="M1980 5916 c0 -19 27 -39 45 -33 8 4 17 2 20 -3 11 -18 35 -10 35 10
0 16 -7 20 -34 20 -19 0 -38 5 -41 10 -9 15 -25 12 -25 -4z"/>
<path d="M1660 5824 c0 -8 5 -12 10 -9 6 3 10 10 10 16 0 5 -4 9 -10 9 -5 0
-10 -7 -10 -16z"/>
<path d="M4480 5785 c0 -17 21 -20 36 -5 8 8 15 6 24 -5 7 -8 22 -15 33 -15
19 0 20 1 2 20 -22 25 -95 29 -95 5z"/>
<path d="M1545 5710 c-16 -17 -16 -24 -5 -44 20 -38 118 -67 127 -38 3 6 0 12
-7 12 -15 0 -80 64 -80 79 0 17 -15 13 -35 -9z"/>
<path d="M1245 5610 c-3 -5 -1 -10 4 -10 6 0 11 5 11 10 0 6 -2 10 -4 10 -3 0
-8 -4 -11 -10z"/>
<path d="M1195 5571 c6 -28 4 -32 -12 -31 -35 4 -35 0 -3 -30 40 -38 64 -40
58 -5 -4 17 -1 25 8 25 8 0 14 5 14 10 0 6 -3 10 -8 10 -4 0 -20 12 -36 26
l-28 27 7 -32z"/>
<path d="M4068 5542 c-7 -10 -21 -21 -31 -25 -16 -6 -14 -11 20 -43 21 -20 48
-40 61 -45 12 -5 21 -14 20 -21 -2 -6 4 -13 13 -15 20 -5 33 35 17 54 -8 10
-6 13 6 13 9 0 16 5 16 10 0 6 -9 10 -20 10 -11 0 -23 7 -27 16 -7 18 -47 64
-56 64 -3 0 -12 -8 -19 -18z"/>
<path d="M3838 5544 c-5 -4 -8 -16 -8 -28 0 -14 3 -17 11 -9 6 6 9 19 7 28 -1
9 -6 13 -10 9z"/>
<path d="M3497 5503 c-21 -20 22 -63 63 -63 38 0 39 17 3 31 -16 6 -35 17 -44
25 -8 8 -19 11 -22 7z"/>
<path d="M1230 5450 c0 -5 4 -10 9 -10 6 0 13 5 16 10 3 6 -1 10 -9 10 -9 0
-16 -4 -16 -10z"/>
<path d="M1080 5440 c0 -5 11 -10 25 -10 16 0 25 -6 25 -15 0 -9 -9 -15 -25
-15 -14 0 -25 -4 -25 -9 0 -5 33 -12 73 -16 39 -4 80 -12 90 -17 25 -13 30 -6
16 24 -6 14 -31 35 -55 46 -46 23 -124 30 -124 12z"/>
<path d="M1299 5438 c-5 -17 -4 -50 3 -54 4 -3 8 9 8 25 0 17 -2 31 -5 31 -3
0 -5 -1 -6 -2z"/>
<path d="M1443 5413 c1 -11 9 -28 17 -37 10 -13 10 -20 2 -28 -7 -7 -12 -16
-12 -21 0 -12 55 44 62 64 3 9 2 22 -3 30 -7 11 -9 11 -9 0 0 -7 -6 -11 -15
-7 -8 3 -15 0 -15 -7 0 -7 -7 -3 -16 8 -14 19 -15 19 -11 -2z"/>
<path d="M1401 5354 c0 -11 3 -14 6 -6 3 7 2 16 -1 19 -3 4 -6 -2 -5 -13z"/>
<path d="M1335 5350 c-3 -5 -16 -10 -28 -10 -16 0 -18 -3 -9 -12 10 -10 17
-10 34 1 17 11 22 11 29 -1 5 -8 9 -8 9 -2 0 18 -27 37 -35 24z"/>
<path d="M1390 5314 c0 -8 7 -15 15 -15 8 -1 20 -2 25 -3 21 -2 8 19 -15 26
-18 4 -25 2 -25 -8z"/>
<path d="M1350 5289 c0 -5 5 -7 10 -4 6 3 10 8 10 11 0 2 -4 4 -10 4 -5 0 -10
-5 -10 -11z"/>
<path d="M1120 5205 c0 -8 6 -15 14 -15 7 0 19 -7 26 -16 29 -34 132 -104 154
-104 14 0 27 -9 34 -22 9 -19 11 -20 11 -5 1 10 10 21 21 25 19 7 19 9 4 31
-14 19 -23 22 -50 18 -19 -3 -34 -2 -34 4 0 5 7 9 15 9 22 0 -20 62 -52 77
-33 16 -31 -9 2 -27 14 -7 25 -22 25 -33 0 -16 -5 -18 -27 -12 -16 3 -37 15
-49 26 -11 10 -26 19 -32 19 -7 0 -12 6 -12 14 0 13 -20 26 -41 26 -5 0 -9 -7
-9 -15z"/>
<path d="M818 5144 c-5 -4 -8 -26 -7 -48 0 -37 1 -39 10 -16 11 27 8 76 -3 64z"/>
<path d="M880 5106 c0 -36 14 -76 26 -76 17 0 17 4 3 53 -10 36 -29 51 -29 23z"/>
<path d="M3325 5109 c-4 -6 -5 -12 -2 -15 2 -3 7 2 10 11 7 17 1 20 -8 4z"/>
<path d="M1540 5087 c0 -24 31 -57 53 -57 l22 1 -22 18 c-13 11 -23 26 -23 35
0 9 -7 16 -15 16 -8 0 -15 -6 -15 -13z"/>
<path d="M3278 5053 c6 -2 18 -2 25 0 6 3 1 5 -13 5 -14 0 -19 -2 -12 -5z"/>
<path d="M1423 5023 c25 -4 28 -7 22 -34 -7 -33 9 -40 24 -10 13 24 -15 52
-50 50 -21 -2 -21 -2 4 -6z"/>
<path d="M2948 5023 c12 -2 30 -2 40 0 9 3 -1 5 -23 4 -22 0 -30 -2 -17 -4z"/>
<path d="M890 4985 c0 -7 8 -19 18 -25 16 -10 16 -10 0 -20 -22 -13 -24 -58
-3 -66 18 -7 20 -30 3 -37 -10 -4 -9 -6 1 -6 11 -1 11 -4 1 -16 -8 -10 -10
-34 -6 -77 11 -119 22 -183 34 -206 8 -13 11 -42 8 -73 -5 -50 -4 -51 20 -45
16 4 23 2 22 -5 -2 -6 4 -14 12 -17 8 -2 12 -1 8 3 -4 5 -4 13 2 20 16 19 1
53 -21 48 -21 -6 -27 13 -6 20 9 3 9 7 -1 19 -9 11 -10 18 -2 23 13 8 13 79 0
125 -5 19 -17 91 -26 160 -8 69 -17 134 -18 146 -2 11 -6 26 -10 32 -10 17
-36 15 -36 -3z"/>
<path d="M1900 4981 c0 -12 6 -21 16 -21 9 0 14 7 12 17 -5 25 -28 28 -28 4z"/>
<path d="M1555 4970 c3 -5 8 -10 11 -10 2 0 4 5 4 10 0 6 -5 10 -11 10 -5 0
-7 -4 -4 -10z"/>
<path d="M3860 4930 c0 -5 7 -10 15 -10 8 0 15 5 15 10 0 6 -7 10 -15 10 -8 0
-15 -4 -15 -10z"/>
<path d="M807 4803 c-3 -4 -5 -87 -4 -183 2 -161 0 -175 -16 -172 -10 2 -17
-3 -17 -13 0 -17 26 -21 32 -4 2 5 11 7 21 4 9 -4 14 -11 11 -16 -3 -5 -1 -9
5 -9 11 0 9 48 -6 272 -8 110 -14 140 -26 121z"/>
<path d="M705 4616 c-27 -19 -63 -43 -80 -52 -25 -14 -73 -51 -157 -120 -26
-21 -22 -37 6 -30 30 7 34 1 42 -58 l7 -46 -35 0 c-45 0 -62 20 -53 60 5 23 3
30 -9 30 -9 0 -17 -4 -17 -10 -1 -5 -2 -16 -3 -22 0 -7 -6 -13 -13 -13 -6 0
-15 -3 -19 -7 -4 -5 2 -8 14 -8 26 0 27 -7 6 -32 -16 -17 -18 -17 -29 -1 -12
16 -14 16 -39 0 -14 -10 -51 -48 -82 -85 -53 -65 -55 -69 -52 -120 3 -48 1
-52 -19 -52 -17 0 -25 -9 -32 -38 -18 -64 -33 -194 -24 -203 4 -4 24 -9 43
-11 30 -3 35 -7 38 -30 3 -27 -11 -38 -23 -18 -10 17 -25 11 -25 -10 0 -15 7
-20 26 -20 16 0 24 -5 22 -12 -7 -19 -43 -21 -61 -4 -24 24 -29 19 -22 -16 9
-43 9 -42 40 -22 20 13 29 14 38 5 8 -8 5 -11 -14 -12 -21 0 -22 -1 -5 -8 18
-7 18 -8 3 -14 -22 -8 -22 -34 1 -40 9 -3 2 -5 -15 -6 -18 0 -33 -5 -33 -9 0
-5 13 -7 29 -4 22 3 32 -1 41 -18 14 -25 6 -36 -30 -43 -24 -4 -24 -4 3 -6 34
-1 35 -17 1 -25 -25 -7 -26 -10 -20 -49 4 -23 7 -49 8 -57 0 -8 7 -22 15 -31
7 -9 11 -24 7 -33 -3 -9 -2 -22 3 -29 5 -6 16 -38 23 -69 7 -32 16 -58 20 -58
4 0 14 10 22 22 13 19 18 21 39 11 18 -9 20 -12 7 -12 -19 -1 -26 -21 -8 -21
6 0 10 -4 10 -10 0 -5 -7 -10 -15 -10 -20 0 -19 -36 1 -44 20 -8 8 -27 -14
-24 -13 2 -16 -3 -14 -21 4 -26 136 -444 151 -476 5 -11 12 -32 15 -47 5 -22
12 -28 32 -28 14 0 23 4 19 10 -3 6 -13 10 -21 10 -8 0 -12 5 -9 10 9 14 41
12 53 -2 5 -7 12 -26 14 -42 3 -25 0 -29 -26 -32 -15 -1 -30 -5 -32 -7 -4 -4
107 -341 125 -382 5 -11 12 -33 16 -49 6 -28 6 -28 63 -21 31 4 68 9 82 12 14
2 104 7 200 10 175 6 209 13 173 41 -18 13 -20 12 30 16 7 1 11 -9 9 -27 -3
-25 -1 -28 20 -25 19 2 22 8 20 32 -2 16 -10 39 -18 51 -11 17 -16 64 -19 186
-3 89 -9 167 -14 172 -5 5 -7 15 -4 22 3 10 -2 12 -16 8 -15 -4 -18 -9 -12
-17 7 -8 2 -11 -17 -10 -26 1 -27 3 -39 98 -11 94 -66 256 -86 256 -4 0 -5 5
-2 11 4 6 -5 45 -20 87 -43 121 -63 162 -82 162 -12 0 -14 3 -6 11 8 8 8 20 1
40 -8 22 -6 32 6 45 21 20 21 97 1 114 -18 15 -20 37 -3 42 8 3 12 31 12 84
l1 80 -28 -4 c-32 -5 -67 -52 -67 -91 0 -18 -4 -22 -20 -18 -11 3 -20 1 -20
-3 0 -5 -3 -16 -6 -25 -6 -14 -2 -15 29 -10 35 7 36 7 61 -49 14 -31 26 -71
25 -89 0 -29 -1 -30 -9 -10 -5 13 -49 63 -99 112 -110 111 -116 127 -106 270
5 58 8 149 7 201 -2 115 9 183 42 252 23 48 46 175 46 250 0 26 -3 28 -39 28
-38 0 -68 19 -43 28 7 2 9 15 6 31 -6 30 12 46 41 35 23 -9 18 -23 -7 -16 -14
3 -19 2 -14 -6 4 -7 19 -12 33 -12 17 0 23 -4 20 -13 -3 -8 -2 -19 3 -26 9
-15 33 227 28 282 l-3 37 -50 -34z m-127 -214 c3 -26 8 -32 26 -32 19 0 22 -4
18 -30 -4 -25 -9 -30 -33 -30 -25 0 -29 4 -34 38 -3 20 -8 50 -10 65 -4 23 -1
28 13 25 11 -2 18 -14 20 -36z m-98 -297 c0 -14 -4 -25 -10 -25 -5 0 -10 11
-10 25 0 14 5 25 10 25 6 0 10 -11 10 -25z m-196 -1 c26 -10 19 -34 -11 -35
l-28 -1 25 -7 c18 -5 21 -9 10 -13 -18 -7 -60 8 -60 21 0 36 25 50 64 35z
m321 -4 c-3 -5 -20 -10 -36 -10 -18 0 -28 4 -24 10 3 6 20 10 36 10 18 0 28
-4 24 -10z m-12 -27 c-13 -2 -33 -2 -45 0 -13 2 -3 4 22 4 25 0 35 -2 23 -4z
m-116 -19 c-3 -3 -12 -4 -19 -1 -8 3 -5 6 6 6 11 1 17 -2 13 -5z m-80 -235
c-15 -9 -16 -12 -2 -25 19 -20 19 -54 0 -54 -8 0 -15 -4 -15 -10 0 -5 7 -10
16 -10 31 0 7 -25 -28 -28 l-35 -3 -2 61 c-1 34 1 66 5 71 3 5 22 9 42 9 30
-1 34 -3 19 -11z m-125 -15 c19 -7 50 -95 37 -104 -5 -3 -23 -6 -41 -5 -29 0
-33 4 -41 38 -11 44 -2 91 16 83 7 -3 20 -9 29 -12z m213 6 c-14 -22 -13 -51
0 -57 8 -3 12 -9 9 -14 -3 -6 -1 -16 5 -23 14 -16 -8 -39 -27 -28 -23 15 -43
95 -33 130 1 1 13 2 27 2 14 0 22 -4 19 -10z m95 -20 l-25 -8 28 -1 c30 -1 36
-21 12 -41 -21 -17 -19 -37 5 -52 31 -20 24 -28 -22 -28 -38 1 -41 2 -26 14
14 10 16 19 9 44 -7 21 -6 32 2 36 8 3 6 9 -5 16 -28 17 -21 30 15 29 30 -1
31 -1 7 -9z m-95 -140 c12 -14 16 -28 12 -50 -4 -17 -2 -30 3 -30 6 0 10 -4
10 -10 0 -5 -18 -10 -40 -10 -44 0 -53 16 -16 29 35 14 40 40 15 68 -13 12
-18 23 -12 23 5 0 18 -9 28 -20z m-185 -20 c0 -16 -7 -20 -32 -21 l-33 -2 35
-7 35 -7 -38 -2 c-25 -1 -40 4 -43 14 -9 23 15 45 47 45 22 0 29 -5 29 -20z
m100 10 c0 -5 -7 -10 -15 -10 -20 0 -19 -19 0 -26 12 -5 13 -10 4 -20 -6 -7
-8 -18 -4 -23 3 -6 2 -19 -4 -28 -8 -16 -11 -15 -20 10 -6 16 -11 33 -11 38 0
5 -3 9 -7 9 -5 0 -8 14 -8 30 0 27 3 30 33 30 17 0 32 -4 32 -10z m185 -50 c3
-5 1 -10 -4 -10 -6 0 -11 5 -11 10 0 6 2 10 4 10 3 0 8 -4 11 -10z m-75 -60
c0 -5 -18 -10 -40 -10 -22 0 -40 5 -40 10 0 6 18 10 40 10 22 0 40 -4 40 -10z
m-130 -36 c0 -8 -4 -12 -10 -9 -5 3 -10 10 -10 16 0 5 5 9 10 9 6 0 10 -7 10
-16z m100 -139 c-10 -12 -9 -15 6 -16 17 -1 17 -2 2 -6 -10 -2 -18 -11 -18
-18 0 -8 8 -19 18 -24 14 -9 12 -10 -14 -11 -29 0 -31 3 -29 30 2 31 20 60 37
60 6 0 5 -7 -2 -15z m-231 -22 c0 -5 -4 -17 -8 -28 -7 -17 -8 -17 -13 8 -4 19
-1 27 8 27 8 0 14 -3 13 -7z m48 -23 c1 -14 0 -18 -3 -10 -4 8 -14 21 -23 28
-14 13 -14 13 4 10 13 -2 21 -12 22 -28z m303 4 c14 -35 13 -39 -5 -24 -9 7
-14 19 -11 26 3 7 0 15 -7 18 -9 3 -9 5 1 5 7 1 17 -11 22 -25z m88 -21 c9 -7
11 -13 6 -13 -17 0 -34 23 -33 45 1 20 1 20 6 0 3 -11 12 -26 21 -32z m-132 8
c-4 -5 -1 -12 4 -14 6 -3 5 -4 -2 -3 -15 3 -23 26 -8 26 6 0 9 -4 6 -9z m-174
-134 c-27 -29 -28 -72 -2 -94 23 -20 26 -33 7 -33 -47 0 -71 105 -32 134 33
25 52 20 27 -7z m340 -32 c2 -46 0 -55 -14 -55 -9 0 -23 -3 -31 -6 -10 -3 -22
4 -32 20 -20 30 -6 66 25 66 11 0 20 7 20 15 0 8 6 15 14 15 10 0 15 -16 18
-55z m-129 29 c24 -9 22 -24 -4 -24 -15 0 -20 -5 -17 -22 2 -13 10 -24 18 -24
32 -3 34 -5 17 -15 -28 -16 -53 -2 -65 38 -12 39 0 69 22 58 6 -3 19 -8 29
-11z m-90 -3 c18 -2 5 -21 -15 -22 l-23 0 23 -9 c23 -10 30 -44 11 -55 -13 -9
-59 3 -59 14 0 5 9 7 20 4 11 -3 20 -1 20 5 0 6 -9 14 -20 17 -19 6 -27 35
-14 48 4 4 16 5 28 2 12 -2 24 -4 29 -4z m314 -12 c17 -17 4 -39 -23 -39 -13
0 -24 -4 -24 -10 0 -5 12 -10 28 -10 24 -1 25 -2 9 -11 -21 -12 -67 12 -67 36
0 34 53 58 77 34z m-249 -274 c0 -14 8 -33 18 -41 18 -14 18 -14 -6 -12 -22 3
-25 9 -28 46 -2 26 1 42 6 38 5 -3 10 -17 10 -31z m-224 -28 c4 -19 3 -26 -4
-22 -5 3 -10 18 -10 32 0 32 5 28 14 -10z m50 17 c3 -8 2 -12 -4 -9 -6 3 -10
10 -10 16 0 14 7 11 14 -7z m524 -13 c4 -28 -13 -20 -21 9 -3 14 -1 20 6 17 7
-2 14 -14 15 -26z m-461 -13 c-3 -7 -5 -2 -5 12 0 14 2 19 5 13 2 -7 2 -19 0
-25z m321 -12 c12 -3 12 -4 -3 -3 -11 1 -20 9 -21 17 0 8 1 10 3 3 2 -6 12
-14 21 -17z m2 -230 c0 -2 -8 -10 -17 -17 -16 -13 -17 -12 -4 4 13 16 21 21
21 13z m-140 -36 c0 -25 -17 -35 -35 -20 -19 16 -19 30 0 30 8 0 15 5 15 11 0
5 5 7 10 4 6 -3 10 -15 10 -25z m-60 -30 c0 -36 5 -52 18 -59 15 -9 15 -12 2
-21 -20 -13 -50 22 -50 59 0 15 -6 33 -12 39 -10 10 -10 15 2 22 31 20 40 11
40 -40z m204 10 c12 0 27 -5 33 -11 17 -17 4 -39 -23 -39 -13 0 -24 -4 -24
-10 0 -5 12 -10 27 -10 20 0 24 -3 16 -11 -15 -15 -59 -4 -67 17 -4 9 -3 33 0
53 4 20 9 30 11 24 3 -7 15 -13 27 -13z m107 -10 c11 0 17 -4 14 -10 -3 -5
-10 -10 -15 -10 -13 0 -40 30 -40 43 0 7 5 4 11 -5 5 -10 19 -18 30 -18z
m-181 -1 c0 -5 -8 -9 -17 -10 -15 0 -14 -3 5 -16 28 -20 28 -41 0 -52 -29 -11
-58 -3 -58 16 0 11 7 13 26 9 17 -5 23 -3 19 4 -3 5 -12 10 -19 10 -21 0 -36
22 -26 40 6 12 18 15 39 12 17 -2 31 -8 31 -13z m190 -75 c0 -8 -4 -12 -10 -9
-5 3 -10 10 -10 16 0 5 5 9 10 9 6 0 10 -7 10 -16z m-292 -49 c-3 -3 -9 2 -12
12 -6 14 -5 15 5 6 7 -7 10 -15 7 -18z m212 -136 c0 -5 -17 -8 -37 -8 -31 2
-33 3 -10 6 15 2 25 9 22 14 -3 5 1 6 9 3 9 -3 16 -10 16 -15z m-160 -13 c0
-8 3 -23 6 -33 5 -12 4 -15 -3 -8 -16 15 -26 55 -14 55 6 0 11 -6 11 -14z m87
-28 c-3 -8 -6 -5 -6 6 -1 11 2 17 5 13 3 -3 4 -12 1 -19z"/>
<path d="M255 4090 c-3 -5 1 -10 10 -10 9 0 13 5 10 10 -3 6 -8 10 -10 10 -2
0 -7 -4 -10 -10z"/>
<path d="M261 3774 c0 -11 3 -14 6 -6 3 7 2 16 -1 19 -3 4 -6 -2 -5 -13z"/>
<path d="M255 3730 c-3 -5 -1 -10 4 -10 6 0 11 5 11 10 0 6 -2 10 -4 10 -3 0
-8 -4 -11 -10z"/>
<path d="M250 3630 c0 -5 7 -10 15 -10 8 0 15 5 15 10 0 6 -7 10 -15 10 -8 0
-15 -4 -15 -10z"/>
<path d="M660 3114 c0 -33 33 -30 38 4 3 17 -2 22 -17 22 -16 0 -21 -6 -21
-26z"/>
<path d="M776 3143 c-11 -11 -6 -23 9 -23 8 0 15 4 15 9 0 13 -16 22 -24 14z"/>
<path d="M5183 4635 c0 -8 4 -15 9 -15 4 0 8 7 8 15 0 8 -4 15 -8 15 -5 0 -9
-7 -9 -15z"/>
<path d="M840 4337 c0 -18 -6 -27 -21 -29 -24 -3 -69 -76 -69 -110 0 -17 6
-13 30 20 37 52 57 54 66 6 8 -41 -18 -109 -48 -125 -17 -9 -26 -39 -10 -39
13 1 49 34 55 53 10 28 25 20 29 -15 2 -21 8 -33 18 -33 22 0 20 118 -2 165
-10 19 -18 55 -20 79 -3 47 -28 72 -28 28z"/>
<path d="M970 4328 c0 -13 10 -61 21 -108 11 -47 26 -117 33 -155 8 -39 22
-97 31 -130 9 -33 20 -76 24 -95 4 -24 13 -36 26 -38 11 -2 25 -9 30 -14 7 -7
3 -8 -12 -3 -17 4 -23 2 -23 -8 0 -8 11 -18 25 -21 14 -4 25 -13 25 -21 0 -8
4 -15 9 -15 15 0 -10 179 -29 205 -4 6 -10 28 -14 50 -11 65 -16 75 -37 75
-16 0 -19 7 -19 40 0 22 5 40 10 40 14 0 13 23 -6 99 -19 84 -34 112 -53 109
-9 -1 -22 1 -28 5 -9 6 -13 1 -13 -15z"/>
<path d="M1683 4304 c3 -4 -3 -14 -15 -24 l-21 -17 21 -21 c26 -26 83 -32 62
-7 -10 12 -10 15 1 15 12 0 12 2 0 9 -8 5 -11 16 -8 24 4 11 1 14 -9 10 -7 -3
-14 0 -14 6 0 6 -5 11 -12 11 -6 0 -9 -3 -5 -6z"/>
<path d="M1731 4184 c0 -11 3 -14 6 -6 3 7 2 16 -1 19 -3 4 -6 -2 -5 -13z"/>
<path d="M1082 4095 c0 -16 2 -22 5 -12 2 9 2 23 0 30 -3 6 -5 -1 -5 -18z"/>
<path d="M1725 4110 c3 -5 8 -10 11 -10 2 0 4 5 4 10 0 6 -5 10 -11 10 -5 0
-7 -4 -4 -10z"/>
<path d="M760 4037 c-36 -42 -91 -137 -96 -165 -9 -47 2 -51 20 -7 9 20 35 62
59 93 23 31 46 62 50 68 10 16 -20 26 -33 11z"/>
<path d="M882 4042 c-9 -7 -9 -27 4 -98 9 -49 23 -101 30 -116 8 -15 14 -36
14 -48 0 -11 4 -20 10 -20 5 0 9 3 9 8 -3 20 2 32 16 32 20 0 19 15 -4 103
-10 39 -22 89 -25 110 -7 37 -25 47 -54 29z"/>
<path d="M1295 3760 c-3 -5 1 -10 10 -10 9 0 13 5 10 10 -3 6 -8 10 -10 10 -2
0 -7 -4 -10 -10z"/>
<path d="M1350 3747 c0 -12 -8 -17 -31 -17 -18 0 -28 -4 -24 -10 4 -6 15 -8
26 -5 10 4 19 2 19 -4 0 -5 -9 -13 -20 -16 -27 -8 -27 -59 -1 -77 28 -20 36
-63 21 -109 -10 -30 -11 -45 -2 -62 20 -38 59 -151 66 -188 3 -21 13 -42 20
-48 8 -7 17 -32 20 -56 7 -45 20 -64 31 -45 3 5 15 10 26 10 12 0 19 5 16 13
-2 6 -13 10 -23 9 -14 -3 -16 -1 -8 8 22 23 48 7 55 -33 6 -36 5 -37 -27 -37
-18 0 -35 -4 -38 -8 -3 -5 18 -55 46 -111 46 -93 52 -100 67 -87 10 9 22 12
30 7 10 -7 9 -9 -3 -14 -17 -7 -22 -27 -6 -27 21 0 51 45 46 70 -3 14 -8 46
-12 71 -6 46 -6 47 25 51 17 2 35 0 41 -6 16 -16 12 16 -4 40 -21 29 -25 129
-6 129 11 0 16 -14 18 -47 3 -41 6 -48 23 -48 18 0 20 -4 14 -32 -5 -28 -4
-30 6 -14 18 30 17 245 -1 256 -23 14 -108 9 -121 -6 -9 -11 -15 -12 -26 -3
-11 10 -17 7 -31 -12 -9 -13 -22 -35 -27 -48 -11 -24 -12 -23 -43 32 -18 31
-32 61 -32 67 0 6 -4 18 -9 28 -6 9 -22 46 -37 82 -32 76 -44 93 -44 62 0 -13
-6 -22 -15 -22 -11 0 -15 12 -15 49 0 27 -3 56 -6 65 -4 11 -1 16 10 16 25 0
30 25 16 78 -14 51 -30 77 -30 49z m278 -598 c2 -25 9 -47 18 -52 24 -14 15
-27 -18 -27 -41 0 -67 14 -44 23 20 8 21 47 1 47 -8 0 -15 5 -15 10 0 6 7 10
15 10 9 0 15 9 15 21 0 40 25 12 28 -32z"/>
<path d="M950 3706 c0 -14 5 -26 10 -26 6 0 10 9 10 19 0 11 -4 23 -10 26 -6
4 -10 -5 -10 -19z"/>
<path d="M1110 3715 c0 -8 5 -15 10 -15 6 0 10 7 10 15 0 8 -4 15 -10 15 -5 0
-10 -7 -10 -15z"/>
<path d="M1130 3694 c-14 -7 -20 -14 -15 -14 12 0 14 -84 3 -95 -4 -4 -3 -15
2 -24 4 -9 16 -33 25 -53 13 -32 21 -38 45 -38 34 0 37 7 15 36 -10 13 -14 44
-15 96 0 56 -4 81 -16 92 -8 9 -16 16 -17 15 -1 -1 -13 -7 -27 -15z"/>
<path d="M976 3657 c-16 -11 -16 -15 -2 -49 10 -22 13 -49 10 -67 -5 -25 -3
-31 11 -31 14 0 16 6 11 32 -4 21 -1 37 9 48 10 11 13 27 9 48 -7 34 -20 39
-48 19z"/>
<path d="M1650 3645 c6 -7 27 -16 46 -20 20 -3 42 -9 50 -12 10 -3 14 2 14 19
0 22 -4 24 -61 25 -49 1 -58 -1 -49 -12z"/>
<path d="M120 3626 c0 -8 5 -18 10 -21 6 -3 10 1 10 9 0 8 -4 18 -10 21 -5 3
-10 -1 -10 -9z"/>
<path d="M1390 3585 c0 -8 5 -15 10 -15 6 0 10 7 10 15 0 8 -4 15 -10 15 -5 0
-10 -7 -10 -15z"/>
<path d="M1312 3550 c0 -19 2 -27 5 -17 2 9 2 25 0 35 -3 9 -5 1 -5 -18z"/>
<path d="M1430 3560 c0 -13 7 -20 19 -20 11 0 23 -4 26 -10 11 -18 45 -11 45
10 0 23 -28 40 -64 40 -19 0 -26 -5 -26 -20z"/>
<path d="M155 3550 c-3 -5 1 -10 10 -10 9 0 13 5 10 10 -3 6 -8 10 -10 10 -2
0 -7 -4 -10 -10z"/>
<path d="M1552 3513 c3 -37 5 -39 78 -69 41 -18 90 -35 108 -39 29 -6 32 -4
32 17 0 58 -9 67 -89 92 -138 43 -133 43 -129 -1z"/>
<path d="M1007 3493 c-16 -3 -30 -10 -32 -16 -7 -19 -36 -295 -40 -372 l-4
-70 10 60 c5 33 14 69 18 80 15 34 23 59 27 89 2 16 8 32 13 35 5 3 14 25 20
49 14 49 37 64 57 37 21 -28 17 -71 -12 -135 -14 -32 -24 -70 -22 -86 l3 -29
23 43 c12 23 29 42 37 42 15 0 45 -50 80 -134 26 -62 41 -68 49 -19 7 44 0 73
-43 165 -17 36 -31 70 -31 75 0 5 -25 46 -55 92 -30 46 -55 87 -55 92 0 5 -3
8 -7 8 -5 -1 -21 -4 -36 -6z"/>
<path d="M1170 3439 c0 -6 13 -29 29 -52 64 -94 102 -195 90 -237 -10 -37 -10
-155 0 -182 25 -65 46 -114 51 -118 3 -3 14 -21 24 -40 30 -56 46 -70 72 -64
16 4 28 -1 41 -15 9 -12 24 -21 31 -21 7 0 31 -18 53 -40 45 -45 89 -55 89
-20 0 13 -6 20 -17 19 -11 0 -13 -3 -5 -6 19 -7 14 -19 -8 -19 -13 0 -20 7
-20 19 0 16 6 19 35 15 19 -2 35 -2 35 0 0 2 -14 21 -30 43 -39 49 -85 73
-112 58 -28 -15 -44 -5 -59 35 -7 20 -19 36 -25 36 -8 0 -11 9 -8 23 6 34 -87
244 -117 263 -5 3 -9 29 -9 57 -1 67 -15 128 -47 200 -24 53 -28 57 -59 57
-19 0 -34 -5 -34 -11z m220 -600 c0 -5 -4 -9 -10 -9 -5 0 -10 7 -10 16 0 8 5
12 10 9 6 -3 10 -10 10 -16z"/>
<path d="M7901 3400 c-29 -17 13 -97 135 -258 66 -87 72 -100 52 -131 -9 -15
-7 -24 10 -49 12 -16 22 -40 22 -53 0 -22 1 -22 13 -4 17 22 73 30 80 11 4 -9
16 -12 34 -9 22 4 25 2 13 -6 -12 -8 -8 -11 18 -11 17 0 32 5 32 11 0 7 14 8
40 4 26 -4 40 -3 40 4 0 14 37 15 45 1 4 -6 12 -6 24 2 11 7 32 8 57 3 21 -5
44 -7 49 -6 6 2 111 5 235 7 124 2 225 4 225 5 0 1 36 2 80 4 44 1 80 3 80 4
0 1 35 4 78 7 73 5 78 4 86 -18 8 -22 8 -22 14 4 5 17 17 30 37 37 17 5 33 17
36 26 13 32 -13 39 -129 38 -111 -1 -112 -1 -44 9 76 12 89 27 25 30 -64 3
-549 9 -658 9 -141 -1 -340 -12 -340 -20 0 -3 5 -13 10 -21 7 -12 42 -16 169
-20 88 -3 162 -8 166 -12 12 -12 -61 -20 -127 -14 -34 3 -110 8 -168 11 -135
8 -139 9 -110 40 27 28 19 45 -21 45 -28 0 -30 4 -29 45 1 20 -42 74 -127 161
-104 107 -131 128 -152 114z m209 -274 c0 -24 5 -36 18 -40 10 -3 7 -4 -8 -3
-20 2 -26 9 -31 40 -4 27 -2 37 8 37 8 0 13 -12 13 -34z"/>
<path d="M1490 3100 c0 -5 7 -10 15 -10 8 0 15 5 15 10 0 6 -7 10 -15 10 -8 0
-15 -4 -15 -10z"/>
<path d="M8200 3100 c0 -5 5 -10 10 -10 6 0 10 5 10 10 0 6 -4 10 -10 10 -5 0
-10 -4 -10 -10z"/>
<path d="M1004 3062 c-13 -9 -33 -173 -20 -169 5 2 10 14 12 28 1 13 7 51 13
83 12 63 11 69 -5 58z"/>
<path d="M1758 2902 c-10 -2 -18 -10 -18 -18 0 -8 -6 -14 -14 -14 -19 0 -27
-13 -17 -28 10 -17 41 -4 41 17 0 14 2 14 10 1 9 -14 -5 -33 -33 -43 -5 -1 6
-24 27 -51 l36 -48 -1 69 c-2 91 -9 119 -31 115z"/>
<path d="M1174 2883 c-3 -10 -10 -28 -15 -41 -5 -13 -9 -41 -9 -62 0 -22 -9
-63 -20 -91 -14 -33 -19 -62 -15 -81 7 -31 26 -40 20 -9 -3 17 0 19 18 12 29
-11 47 -3 41 17 -5 15 -4 15 8 1 7 -9 26 -19 42 -23 27 -7 28 -9 21 -49 -3
-23 -8 -53 -10 -67 -2 -14 -4 -27 -5 -30 -1 -3 -1 -36 0 -75 1 -38 -4 -121
-10 -184 -8 -81 -9 -116 -1 -124 8 -8 11 3 11 38 0 28 7 75 15 105 8 30 15 65
15 78 0 13 14 52 30 87 17 35 30 69 30 75 0 5 -13 10 -29 10 -25 0 -28 3 -24
24 5 23 30 42 41 31 3 -3 0 -5 -6 -5 -7 0 -12 -4 -12 -10 0 -5 11 -10 24 -10
19 0 26 7 31 30 7 34 11 36 31 15 22 -22 45 -9 34 20 -7 19 -6 23 5 18 8 -3
15 -9 15 -14 0 -5 5 -9 11 -9 6 0 9 10 7 23 -2 14 -13 25 -33 32 -16 6 -37 15
-45 20 -8 6 -28 15 -44 20 -23 8 -35 24 -55 70 -15 33 -38 78 -52 100 -14 22
-28 48 -32 58 -3 9 -11 17 -17 17 -6 0 -13 -8 -16 -17z m156 -263 c0 -5 -4
-10 -10 -10 -5 0 -10 5 -10 10 0 6 5 10 10 10 6 0 10 -4 10 -10z m80 -24 c0
-2 -7 -7 -16 -10 -8 -3 -12 -2 -9 4 6 10 25 14 25 6z"/>
<path d="M8322 2825 c-17 -36 -15 -39 10 -15 15 14 19 23 12 30 -7 7 -14 2
-22 -15z"/>
<path d="M8360 2805 c0 -8 -4 -15 -10 -15 -5 0 -10 -4 -10 -10 0 -5 7 -10 15
-10 8 0 15 4 15 10 0 5 7 7 15 4 18 -7 20 7 3 24 -16 16 -28 15 -28 -3z"/>
<path d="M9355 2800 c3 -5 8 -10 11 -10 2 0 4 5 4 10 0 6 -5 10 -11 10 -5 0
-7 -4 -4 -10z"/>
<path d="M8600 2783 c-8 -4 -21 -13 -30 -21 -13 -13 -13 -14 0 -9 8 4 23 10
33 13 9 4 17 10 17 15 0 5 -1 9 -2 8 -2 0 -10 -3 -18 -6z"/>
<path d="M8384 2759 l-19 -22 30 7 c36 9 39 12 30 25 -9 16 -20 13 -41 -10z"/>
<path d="M8431 2736 c-15 -18 0 -28 16 -10 7 7 9 15 4 18 -5 3 -14 -1 -20 -8z"/>
<path d="M8571 2710 c-13 -11 -19 -20 -14 -20 15 0 63 25 63 33 0 13 -25 7
-49 -13z"/>
<path d="M8450 2690 c0 -5 6 -10 14 -10 8 0 18 5 21 10 3 6 -3 10 -14 10 -12
0 -21 -4 -21 -10z"/>
<path d="M1674 2635 c-4 -9 -19 -15 -35 -15 -16 0 -29 -3 -29 -6 0 -10 63 -84
128 -152 l62 -65 0 62 c0 60 -2 64 -52 126 -56 68 -65 74 -74 50z"/>
<path d="M8565 2589 c-24 -15 -26 -19 -10 -18 11 1 31 4 44 8 19 5 21 8 10 17
-11 9 -22 7 -44 -7z"/>
<path d="M8605 2560 c-4 -6 -10 -8 -15 -5 -7 4 -20 -16 -20 -31 0 -12 31 -1
56 21 27 24 28 25 7 25 -12 0 -25 -5 -28 -10z"/>
<path d="M1485 2540 c-3 -5 1 -10 9 -10 9 0 16 5 16 10 0 6 -4 10 -9 10 -6 0
-13 -4 -16 -10z"/>
<path d="M8670 2529 c0 -5 5 -7 10 -4 6 3 10 8 10 11 0 2 -4 4 -10 4 -5 0 -10
-5 -10 -11z"/>
<path d="M1470 2503 c0 -16 -14 -40 -80 -138 -47 -69 -68 -118 -75 -177 -9
-70 1 -115 26 -123 13 -4 19 -15 19 -35 0 -17 7 -30 16 -34 24 -9 25 -6 2 44
-27 56 -34 136 -18 186 15 49 111 204 126 204 6 0 19 -17 28 -38 20 -44 88
-118 117 -127 10 -4 19 -11 19 -17 0 -5 12 -24 26 -41 27 -32 27 -29 8 -142
-3 -22 -13 -47 -20 -56 -8 -9 -11 -19 -7 -23 4 -4 6 -22 5 -41 -3 -40 0 -42
23 -18 10 10 19 12 23 6 4 -5 16 -13 27 -18 19 -8 19 -9 -2 -12 -17 -3 -23
-11 -23 -29 0 -19 5 -24 27 -24 19 0 24 -3 16 -11 -6 -6 -21 -9 -34 -7 -17 2
-25 11 -29 32 -7 43 -30 46 -30 4 0 -18 -3 -50 -6 -70 -6 -32 -4 -38 10 -38
13 0 16 -7 14 -27 -4 -32 -28 -44 -28 -14 0 33 -17 25 -30 -13 -6 -19 -16 -36
-23 -39 -7 -2 37 -7 97 -10 59 -4 111 -5 116 -2 4 2 -1 42 -11 87 -10 46 -26
122 -35 170 -15 75 -21 88 -41 93 -13 3 -23 9 -23 14 0 5 9 7 20 4 17 -5 20 0
20 27 0 27 -3 30 -20 25 -11 -3 -20 -2 -20 4 0 5 8 12 19 16 12 4 21 19 25 45
6 36 9 40 36 40 20 0 30 5 30 15 0 8 -8 15 -17 15 -10 0 -14 4 -8 8 21 15 16
42 -10 52 -39 15 -45 13 -46 -17 -1 -16 -3 -21 -6 -11 -2 9 -14 19 -26 21
l-22 4 23 2 c12 0 22 7 22 14 0 23 -150 177 -173 177 -12 0 -29 5 -37 10 -12
8 -11 10 8 10 12 0 22 4 22 9 0 12 -8 16 -42 25 -22 5 -28 3 -28 -11z m304
-766 c13 -22 -6 -37 -44 -35 -25 1 -25 1 2 5 19 3 26 10 25 24 -1 21 -33 26
-40 7 -2 -7 -8 -10 -12 -6 -4 4 -4 12 0 18 10 16 56 8 69 -13z"/>
<path d="M8608 2503 c-14 -2 -29 -11 -32 -19 -8 -21 27 -18 54 6 13 11 19 19
14 19 -5 -1 -21 -4 -36 -6z"/>
<path d="M460 2480 c0 -5 5 -10 10 -10 6 0 10 5 10 10 0 6 -4 10 -10 10 -5 0
-10 -4 -10 -10z"/>
<path d="M8685 2480 c-3 -5 1 -10 10 -10 9 0 13 5 10 10 -3 6 -8 10 -10 10 -2
0 -7 -4 -10 -10z"/>
<path d="M8617 2453 c-15 -15 -5 -25 18 -19 18 5 27 2 31 -9 7 -18 48 -21 42
-2 -3 6 -14 13 -26 15 -12 2 -22 8 -22 13 0 10 -33 12 -43 2z"/>
<path d="M8630 2390 c0 -5 7 -7 15 -4 8 4 15 8 15 10 0 2 -7 4 -15 4 -8 0 -15
-4 -15 -10z"/>
<path d="M8685 2370 c-3 -5 1 -10 10 -10 9 0 13 5 10 10 -3 6 -8 10 -10 10 -2
0 -7 -4 -10 -10z"/>
<path d="M8778 2373 c7 -3 16 -2 19 1 4 3 -2 6 -13 5 -11 0 -14 -3 -6 -6z"/>
<path d="M8590 2360 c0 -5 7 -7 15 -4 8 4 15 8 15 10 0 2 -7 4 -15 4 -8 0 -15
-4 -15 -10z"/>
<path d="M8740 2340 c0 -5 7 -10 16 -10 8 0 12 5 9 10 -3 6 -10 10 -16 10 -5
0 -9 -4 -9 -10z"/>
<path d="M8638 2333 c7 -3 16 -2 19 1 4 3 -2 6 -13 5 -11 0 -14 -3 -6 -6z"/>
<path d="M8595 2310 c-3 -5 -2 -10 4 -10 5 0 13 5 16 10 3 6 2 10 -4 10 -5 0
-13 -4 -16 -10z"/>
<path d="M8770 2305 c0 -8 -7 -15 -17 -15 -9 0 -13 -3 -10 -7 8 -8 57 17 57
29 0 4 -7 8 -15 8 -8 0 -15 -7 -15 -15z"/>
<path d="M9379 2288 c-5 -65 -3 -150 3 -154 4 -3 8 33 8 80 0 47 -2 86 -5 86
-3 0 -5 -6 -6 -12z"/>
<path d="M8885 2260 c3 -5 8 -10 11 -10 2 0 4 5 4 10 0 6 -5 10 -11 10 -5 0
-7 -4 -4 -10z"/>
<path d="M8150 2248 c0 -9 7 -19 16 -22 15 -6 15 -4 3 11 -7 10 -15 20 -16 22
-2 2 -3 -3 -3 -11z"/>
<path d="M8788 2253 c7 -3 16 -2 19 1 4 3 -2 6 -13 5 -11 0 -14 -3 -6 -6z"/>
<path d="M8830 2230 c0 -5 7 -10 15 -10 8 0 15 5 15 10 0 6 -7 10 -15 10 -8 0
-15 -4 -15 -10z"/>
<path d="M8856 2195 c-20 -15 -20 -15 0 -33 10 -10 27 -21 37 -25 18 -7 24
-27 7 -27 -5 0 1 -11 14 -25 28 -30 47 -32 64 -5 7 11 18 17 27 14 8 -4 15 -1
15 6 0 14 -53 4 -58 -11 -7 -17 -34 -10 -30 9 2 9 10 16 16 15 22 -5 12 7 -28
33 -30 20 -39 32 -35 45 7 23 -3 24 -29 4z"/>
<path d="M8150 2136 c0 -36 4 -66 8 -66 5 0 8 21 7 48 -1 26 2 50 7 53 5 3 2
12 -7 19 -13 11 -15 5 -15 -54z"/>
<path d="M8935 2180 c3 -5 11 -10 16 -10 6 0 7 5 4 10 -3 6 -11 10 -16 10 -6
0 -7 -4 -4 -10z"/>
<path d="M8978 2153 c7 -3 16 -2 19 1 4 3 -2 6 -13 5 -11 0 -14 -3 -6 -6z"/>
<path d="M1245 2050 c-8 -14 13 -50 30 -50 11 0 12 6 4 30 -11 31 -23 38 -34
20z"/>
<path d="M9004 2026 c4 -11 2 -22 -3 -26 -6 -3 0 -17 15 -33 14 -15 24 -33 22
-39 -5 -15 18 -37 66 -64 31 -17 39 -28 41 -54 2 -18 9 -36 16 -41 18 -11 23
-4 14 18 -8 18 -11 28 -13 51 -1 6 -11 21 -23 33 l-20 20 25 20 c25 20 35 49
17 49 -5 0 -18 3 -28 6 -15 6 -16 4 -5 -7 6 -7 12 -19 12 -26 0 -18 -29 -16
-36 2 -4 8 -12 15 -20 15 -8 0 -14 9 -14 20 0 17 -3 19 -19 10 -28 -14 -31
-13 -31 13 0 12 -5 29 -11 37 -9 12 -10 12 -5 -4z"/>
<path d="M8698 1983 c7 -3 16 -2 19 1 4 3 -2 6 -13 5 -11 0 -14 -3 -6 -6z"/>
<path d="M1597 1964 c-7 -8 3 -34 13 -34 4 0 10 9 13 20 5 19 -12 28 -26 14z"/>
<path d="M8160 1909 c0 -64 1 -66 25 -66 14 0 25 3 25 8 0 5 -4 9 -10 9 -16 0
-11 25 9 47 11 12 17 24 14 27 -3 3 -12 -2 -19 -12 -11 -15 -14 -14 -28 18
l-15 35 -1 -66z"/>
<path d="M8747 1959 c7 -7 15 -10 18 -7 3 3 -2 9 -12 12 -14 6 -15 5 -6 -5z"/>
<path d="M9382 1940 c-8 -22 -8 -29 0 -24 7 5 9 -1 5 -18 -5 -18 -2 -30 9 -39
15 -12 16 -8 11 44 -6 70 -11 78 -25 37z"/>
<path d="M8335 1930 c-3 -5 -1 -10 4 -10 6 0 11 5 11 10 0 6 -2 10 -4 10 -3 0
-8 -4 -11 -10z"/>
<path d="M8600 1931 c0 -5 10 -11 22 -13 24 -3 38 -28 15 -28 -8 0 -20 -7 -27
-15 -11 -13 -10 -14 6 -8 10 3 29 13 42 21 l23 15 -31 18 c-34 21 -50 24 -50
10z"/>
<path d="M9197 1933 c-11 -11 -8 -23 6 -23 19 0 50 -37 42 -49 -3 -6 -1 -11 5
-11 7 0 6 -5 -2 -14 -7 -8 -15 -12 -18 -11 -3 2 -12 0 -19 -5 -16 -9 -6 -30
14 -30 8 0 31 -16 52 -35 21 -19 33 -35 26 -35 -6 0 -18 7 -27 15 -8 8 -22 15
-30 15 -21 0 -21 -26 0 -34 12 -5 10 -10 -12 -31 -21 -20 -25 -28 -16 -37 9
-9 12 -8 12 5 0 21 13 22 30 3 6 -8 28 -16 48 -18 35 -3 37 -5 37 -38 0 -35 0
-35 -47 -35 -25 0 -50 -4 -54 -8 -11 -11 -52 -9 -59 4 -4 6 -12 4 -20 -8 -12
-15 -18 -16 -44 -6 -17 6 -31 7 -31 2 0 -15 -49 -22 -64 -9 -12 9 -20 8 -39
-5 -20 -13 -29 -14 -51 -4 -20 10 -29 10 -38 1 -15 -15 -51 -15 -66 0 -9 9
-15 9 -24 0 -15 -15 -65 -16 -74 -1 -4 8 -9 8 -17 0 -14 -14 -67 -14 -67 0 0
6 9 13 20 16 11 3 20 9 20 14 0 13 -27 11 -42 -3 -25 -24 -86 -50 -99 -43 -7
5 -40 10 -73 11 -107 6 -230 24 -243 37 -3 4 0 14 7 22 10 12 10 19 2 27 -9 9
-8 16 5 30 15 17 17 17 49 -7 28 -22 33 -23 45 -9 7 8 21 13 30 11 10 -3 25 4
35 14 16 18 40 17 28 -2 -3 -5 -10 -6 -16 -3 -6 4 -8 2 -5 -4 9 -13 46 -4 70
16 15 13 21 13 42 2 22 -12 27 -11 44 4 23 21 45 12 38 -15 -6 -22 10 -25 32
-5 26 22 58 28 72 13 11 -11 16 -10 35 10 11 12 25 19 29 15 5 -4 5 1 2 11 -4
11 -1 17 9 17 10 0 14 -6 10 -15 -6 -16 -5 -16 34 -20 14 -1 37 -5 53 -10 21
-6 27 -4 27 9 0 24 11 22 78 -13 22 -11 23 -11 17 8 -5 16 -2 21 13 21 11 0
25 -7 32 -15 7 -8 24 -15 39 -15 21 1 16 6 -31 31 -32 16 -58 34 -58 40 0 5
-4 8 -9 5 -4 -3 -17 1 -27 9 -10 8 -25 15 -32 15 -19 0 19 -37 42 -41 23 -5
34 -29 13 -29 -8 0 -20 7 -27 15 -7 8 -21 15 -31 15 -11 0 -19 5 -19 10 0 6
-11 10 -24 10 -13 0 -26 6 -29 13 -2 6 -7 9 -11 6 -12 -11 6 -39 30 -45 27 -7
24 -24 -4 -19 -9 2 -28 4 -40 4 -15 1 -26 8 -29 20 -5 20 -31 36 -75 45 -28 6
-40 -8 -15 -17 8 -4 6 -6 -4 -6 -21 -1 -54 35 -39 44 5 3 8 11 5 16 -4 5 -21
-2 -39 -16 -18 -14 -42 -25 -54 -25 -16 0 -20 -4 -15 -17 5 -14 1 -15 -26 -10
-37 8 -34 -9 5 -23 26 -10 33 -30 11 -30 -8 0 -28 7 -46 16 -27 14 -30 18 -19
32 7 9 9 13 3 10 -38 -21 -87 -37 -129 -42 -27 -3 -58 -14 -68 -23 -17 -15
-20 -15 -28 -3 -6 8 -10 10 -10 4 0 -7 -11 -14 -25 -16 -20 -4 -23 -3 -14 8 8
10 4 19 -18 38 -15 13 -29 23 -31 22 -1 -2 -3 -38 -3 -82 -1 -48 -7 -92 -17
-113 -13 -28 -13 -39 -3 -68 7 -19 15 -49 18 -67 3 -17 9 -38 14 -47 11 -21
-14 -29 -98 -29 -56 0 -85 -11 -69 -27 10 -11 141 -10 154 0 9 7 16 7 24 -1 7
-7 22 -12 34 -12 18 0 22 5 20 33 l-1 32 97 2 97 2 -6 -34 c-5 -33 -4 -35 23
-34 17 1 22 3 12 6 -11 3 -18 14 -18 29 0 25 30 39 67 32 22 -4 30 -47 11 -59
-9 -6 -7 -9 10 -9 12 0 22 4 22 9 0 5 10 11 22 13 32 5 35 28 4 28 -14 0 -26
5 -26 10 0 16 57 12 74 -6 9 -8 16 -17 16 -19 0 -2 -7 -11 -16 -19 -14 -15
-12 -16 25 -16 31 0 43 5 52 21 9 17 7 25 -12 45 -19 20 -20 24 -6 24 10 0 25
-9 35 -21 21 -25 67 -51 76 -42 11 11 6 23 -9 23 -8 0 -15 4 -15 9 0 13 51 24
63 12 5 -5 33 -7 63 -4 l54 6 0 -37 c0 -30 3 -36 22 -36 20 0 21 1 4 13 -10 7
-16 22 -14 33 2 15 12 19 43 19 35 0 40 -3 43 -24 2 -13 -2 -27 -8 -31 -8 -5
-9 -10 -2 -14 6 -3 17 1 25 9 9 8 22 15 30 15 8 0 17 7 21 15 4 10 -1 15 -14
15 -31 0 -23 17 11 24 44 8 51 0 34 -40 l-14 -34 30 0 c18 0 28 4 24 10 -4 6
6 11 22 11 l28 1 -29 7 c-16 3 -31 11 -33 18 -6 16 46 29 66 16 21 -13 26 -43
9 -54 -9 -6 -4 -9 15 -9 19 0 26 4 21 12 -4 6 1 17 11 25 11 7 13 13 7 13 -7
0 -12 5 -12 11 0 14 62 7 67 -8 3 -7 -8 -16 -24 -20 -26 -7 -24 -8 22 -14 86
-12 147 -11 143 4 -3 6 -19 13 -36 15 -18 2 -32 9 -33 15 -7 84 -6 118 3 153
8 34 7 46 -7 67 -9 14 -16 28 -16 31 3 22 0 36 -9 36 -5 0 -10 -13 -10 -30 0
-35 -15 -40 -24 -7 -12 47 -7 67 17 64 19 -2 22 3 25 42 2 25 1 55 -3 68 -5
21 -7 22 -20 9 -8 -8 -20 -16 -27 -18 -10 -4 -10 -8 1 -22 8 -9 11 -19 8 -22
-11 -11 -118 98 -108 110 16 19 -2 80 -27 91 -12 5 -22 15 -22 22 0 14 -13 17
-23 6z m-592 -212 c3 -5 1 -12 -4 -15 -13 -8 -42 4 -35 15 7 12 31 12 39 0z
m45 -20 c0 -6 -4 -13 -10 -16 -5 -3 -10 1 -10 9 0 9 5 16 10 16 6 0 10 -4 10
-9z m-172 -13 c-6 -18 -28 -21 -28 -4 0 9 7 16 16 16 9 0 14 -5 12 -12z m-148
-38 c0 -5 -4 -10 -10 -10 -5 0 -10 5 -10 10 0 6 5 10 10 10 6 0 10 -4 10 -10z
m338 -160 c2 0 0 -4 -3 -10 -8 -13 -132 -13 -139 -1 -10 15 16 21 79 16 33 -2
61 -4 63 -5z"/>
<path d="M9157 1903 c-12 -12 -7 -19 15 -20 13 -1 24 -7 26 -13 2 -5 9 -10 15
-10 6 0 0 11 -13 25 -25 26 -32 29 -43 18z"/>
<path d="M8210 1880 c0 -5 5 -10 11 -10 5 0 7 5 4 10 -3 6 -8 10 -11 10 -2 0
-4 -4 -4 -10z"/>
<path d="M8650 1850 c0 -6 -11 -15 -25 -20 -14 -5 -25 -15 -25 -21 0 -6 13 -3
32 8 32 19 48 43 29 43 -6 0 -11 -5 -11 -10z"/>
<path d="M8170 1821 c0 -17 28 -43 41 -39 5 2 -1 14 -15 27 -15 14 -26 19 -26
12z"/>
<path d="M8217 1819 c7 -7 15 -10 18 -7 3 3 -2 9 -12 12 -14 6 -15 5 -6 -5z"/>
<path d="M9446 1821 c-4 -6 -4 -21 -1 -32 5 -14 2 -25 -6 -30 -9 -6 -1 -9 24
-9 20 0 37 5 37 10 0 6 -7 10 -15 10 -8 0 -15 8 -15 18 0 25 -16 47 -24 33z"/>
<path d="M1426 1781 c-4 -7 -5 -15 -2 -18 9 -9 19 4 14 18 -4 11 -6 11 -12 0z"/>
<path d="M9010 1755 c14 -8 32 -14 40 -14 8 0 0 6 -19 14 -42 19 -54 19 -21 0z"/>
<path d="M9198 1753 c7 -3 16 -2 19 1 4 3 -2 6 -13 5 -11 0 -14 -3 -6 -6z"/>
<path d="M1420 1729 c0 -11 5 -17 10 -14 6 3 10 13 10 21 0 8 -4 14 -10 14 -5
0 -10 -9 -10 -21z"/>
<path d="M8200 1741 c0 -5 5 -13 10 -16 6 -3 10 -2 10 4 0 5 -4 13 -10 16 -5
3 -10 2 -10 -4z"/>
<path d="M9130 1732 c25 -13 39 -15 49 -8 11 9 8 12 -15 17 -58 13 -70 10 -34
-9z"/>
<path d="M1446 1711 c-23 -26 -6 -64 27 -59 24 3 25 28 3 60 -12 17 -14 17
-30 -1z"/>
<path d="M9098 1700 c17 -16 32 -34 32 -40 0 -16 15 -12 40 10 13 11 32 20 43
20 16 0 17 3 7 15 -10 12 -15 12 -36 -1 -22 -15 -26 -15 -59 5 -52 30 -65 25
-27 -9z"/>
<path d="M8648 1617 c-7 -7 -22 -16 -33 -21 -16 -6 -17 -9 -5 -16 10 -6 20 -4
31 6 8 7 21 14 27 14 18 0 23 17 7 24 -8 3 -20 -1 -27 -7z"/>
<path d="M9305 1620 c3 -5 10 -10 16 -10 5 0 9 5 9 10 0 6 -7 10 -16 10 -8 0
-12 -4 -9 -10z"/>
<path d="M9308 1578 c9 -9 15 -9 24 0 9 9 7 12 -12 12 -19 0 -21 -3 -12 -12z"/>
<path d="M8260 1569 c0 -5 5 -7 10 -4 6 3 10 8 10 11 0 2 -4 4 -10 4 -5 0 -10
-5 -10 -11z"/>
<path d="M7440 1340 c0 -5 7 -10 16 -10 8 0 12 5 9 10 -3 6 -10 10 -16 10 -5
0 -9 -4 -9 -10z"/>
<path d="M7296 1311 c-22 -23 -27 -37 -27 -77 1 -27 -2 -70 -5 -95 -7 -59 17
-113 47 -104 11 4 19 2 19 -4 0 -6 12 -11 28 -11 25 -1 26 -2 9 -14 -21 -16
-13 -23 23 -22 16 1 26 8 28 20 4 21 -13 36 -44 36 -28 0 -47 23 -46 58 0 15
-7 35 -16 45 -13 15 -14 22 -4 37 6 11 9 25 7 32 -3 7 6 18 20 25 14 6 23 8
20 3 -3 -4 5 -10 18 -14 12 -3 24 -1 25 4 2 6 12 10 22 10 18 0 32 21 35 53 2
20 -41 47 -75 47 -22 0 -30 -40 -7 -41 6 0 1 -5 -12 -10 -16 -6 -28 -6 -35 1
-7 7 -6 10 2 10 7 0 12 9 12 20 0 27 -11 25 -44 -9z m124 -52 c0 -5 -4 -9 -10
-9 -5 0 -10 7 -10 16 0 8 5 12 10 9 6 -3 10 -10 10 -16z"/>
<path d="M7490 1321 c0 -12 6 -21 16 -21 9 0 14 7 12 17 -5 25 -28 28 -28 4z"/>
<path d="M7536 1332 c-9 -14 12 -35 28 -29 23 9 20 37 -3 37 -11 0 -22 -4 -25
-8z"/>
<path d="M7607 1334 c-11 -11 -8 -44 3 -44 6 0 10 7 10 15 0 8 5 15 10 15 6 0
10 -5 10 -11 0 -6 8 -9 18 -7 29 6 20 33 -13 36 -17 2 -34 0 -38 -4z"/>
<path d="M7698 1308 c-2 -13 1 -33 7 -44 l11 -22 25 22 c13 11 31 29 38 39 12
14 11 17 -3 17 -9 0 -16 -6 -16 -14 0 -8 -7 -17 -16 -20 -13 -5 -15 -1 -10 19
5 20 3 25 -13 25 -11 0 -20 -9 -23 -22z"/>
<path d="M7810 1311 c0 -12 5 -21 10 -21 6 0 10 6 10 14 0 8 -4 18 -10 21 -5
3 -10 -3 -10 -14z"/>
<path d="M7855 1319 c-4 -6 -4 -13 -1 -16 8 -8 36 5 36 17 0 13 -27 13 -35 -1z"/>
<path d="M8270 1321 c0 -5 -3 -16 -6 -25 -4 -12 0 -16 15 -16 16 0 21 6 21 25
0 16 -6 25 -15 25 -8 0 -15 -4 -15 -9z"/>
<path d="M8370 1304 c0 -31 23 -28 28 4 2 15 -2 22 -12 22 -11 0 -16 -9 -16
-26z"/>
<path d="M8480 1315 c0 -8 7 -15 15 -15 8 0 15 7 15 15 0 8 -7 15 -15 15 -8 0
-15 -7 -15 -15z"/>
<path d="M8900 1315 c0 -8 5 -15 10 -15 6 0 10 7 10 15 0 8 -4 15 -10 15 -5 0
-10 -7 -10 -15z"/>
<path d="M9000 1315 c0 -10 7 -15 18 -13 21 4 19 22 -2 26 -10 2 -16 -3 -16
-13z"/>
<path d="M7910 1301 c0 -11 -6 -22 -12 -24 -8 -3 -7 -6 4 -6 9 -1 19 7 23 18
4 13 12 17 29 14 13 -3 27 0 30 6 5 7 -7 11 -33 11 -34 0 -41 -3 -41 -19z"/>
<path d="M8330 1299 c0 -11 4 -18 10 -14 5 3 7 12 3 20 -7 21 -13 19 -13 -6z"/>
<path d="M8837 1300 c-16 -19 -16 -20 25 -20 23 0 39 1 37 3 -2 1 -13 10 -25
19 -19 17 -21 16 -37 -2z"/>
<path d="M9566 1304 c-4 -11 0 -15 16 -12 12 2 23 9 26 16 6 18 -35 15 -42 -4z"/>
<path d="M8740 1295 c-10 -12 -10 -15 4 -15 9 0 16 7 16 15 0 8 -2 15 -4 15
-2 0 -9 -7 -16 -15z"/>
<path d="M7488 1283 c-16 -4 -17 -6 -2 -20 11 -12 18 -13 27 -4 6 6 20 11 32
12 20 0 20 0 0 9 -22 9 -31 10 -57 3z"/>
<path d="M7575 1280 c-3 -5 1 -10 10 -10 9 0 13 5 10 10 -3 6 -8 10 -10 10 -2
0 -7 -4 -10 -10z"/>
<path d="M7446 1014 c-3 -9 -4 -20 0 -25 10 -16 53 -9 64 10 15 29 13 31 -24
31 -22 0 -36 -6 -40 -16z"/>
<path d="M7580 1013 c0 -37 70 -55 148 -38 35 8 38 25 6 33 -40 10 -154 13
-154 5z"/>
<path d="M7540 1000 c0 -5 7 -10 16 -10 8 0 12 5 9 10 -3 6 -10 10 -16 10 -5
0 -9 -4 -9 -10z"/>
<path d="M7792 983 c5 -25 28 -28 28 -4 0 12 -6 21 -16 21 -9 0 -14 -7 -12
-17z"/>
<path d="M7844 989 c-10 -17 13 -36 27 -22 12 12 4 33 -11 33 -5 0 -12 -5 -16
-11z"/>
<path d="M7905 987 c-4 -10 -5 -21 -1 -24 10 -10 18 4 13 24 -4 17 -4 17 -12
0z"/>
<path d="M7950 981 c0 -12 6 -21 16 -21 9 0 14 7 12 17 -5 25 -28 28 -28 4z"/>
<path d="M8110 980 c0 -5 -14 -10 -31 -10 -17 0 -28 -4 -24 -10 3 -5 22 -10
41 -10 27 0 34 4 34 20 0 11 -4 20 -10 20 -5 0 -10 -4 -10 -10z"/>
<path d="M8158 978 c-7 -19 2 -38 19 -38 9 0 13 8 11 22 -3 25 -23 35 -30 16z"/>
<path d="M8010 964 c0 -8 5 -12 10 -9 6 3 10 10 10 16 0 5 -4 9 -10 9 -5 0
-10 -7 -10 -16z"/>
<path d="M8250 970 c0 -5 7 -10 15 -10 8 0 15 5 15 10 0 6 -7 10 -15 10 -8 0
-15 -4 -15 -10z"/>
<path d="M8320 963 c0 -23 15 -39 24 -25 3 5 -1 18 -9 28 -14 18 -14 18 -15
-3z"/>
<path d="M9328 973 c6 -2 18 -2 25 0 6 3 1 5 -13 5 -14 0 -19 -2 -12 -5z"/>
<path d="M9560 970 c0 -5 7 -10 15 -10 8 0 15 5 15 10 0 6 -7 10 -15 10 -8 0
-15 -4 -15 -10z"/>
<path d="M6920 963 c-25 -3 -49 -8 -54 -14 -14 -13 -53 -11 -76 4 -15 8 -23 9
-28 1 -8 -12 -82 -14 -82 -2 0 4 -7 8 -15 8 -8 0 -15 -4 -15 -10 0 -13 -63
-13 -77 1 -8 8 -13 8 -17 0 -9 -13 -56 -14 -76 -1 -9 5 -19 5 -27 -2 -9 -7
-17 -7 -28 2 -12 10 -18 10 -30 0 -11 -9 -19 -9 -28 -2 -8 7 -17 6 -30 -3 -19
-13 -52 -10 -75 8 -10 8 -16 7 -22 -2 -5 -10 -19 -11 -46 -6 -40 7 -1060 7
-1344 0 -85 -2 -414 -7 -730 -10 -316 -4 -714 -8 -885 -10 -170 -2 -470 -5
-665 -6 -195 -1 -381 -4 -412 -7 -78 -5 -76 -25 5 -43 126 -28 4205 -11 4810
20 75 4 142 12 148 18 7 7 3 19 -15 38 -26 28 -26 28 -66 12 -35 -13 -42 -14
-54 -1 -8 8 -16 13 -18 12 -2 -1 -23 -3 -48 -5z"/>
<path d="M8215 961 c-3 -5 -1 -12 5 -16 5 -3 10 1 10 9 0 18 -6 21 -15 7z"/>
<path d="M8370 956 c0 -16 21 -26 57 -26 19 0 24 4 19 16 -3 9 -6 18 -6 20 0
2 -16 4 -35 4 -23 0 -35 -5 -35 -14z"/>
<path d="M8476 962 c-2 -4 -1 -14 4 -21 11 -18 85 -24 710 -57 58 -3 168 -9
245 -14 208 -14 205 -15 205 15 0 25 -1 25 -82 26 -46 0 -135 4 -198 8 -89 6
-121 5 -142 -5 -34 -17 -38 -17 -38 0 0 20 -62 27 -255 27 -94 0 -181 0 -195
0 -14 1 -28 6 -32 12 -4 7 -11 7 -23 -3 -14 -12 -18 -12 -27 1 -7 11 -11 11
-15 2 -7 -18 -71 -16 -89 2 -16 16 -59 20 -68 7z"/>
</g>
</svg>
